<svg xmlns="http://www.w3.org/2000/svg" xmlns:xlink="http://www.w3.org/1999/xlink" width="1000" zoomAndPan="magnify" viewBox="0 0 750 374.999991" height="500" preserveAspectRatio="xMidYMid meet" version="1.0"><defs><g/><clipPath id="id1"><path d="M 11 108 L 122 108 L 122 225 L 11 225 Z M 11 108 " clip-rule="nonzero"/></clipPath><clipPath id="id2"><path d="M 32.992188 93.90625 L 136.25 204.769531 L 99.476562 239.019531 L -3.777344 128.15625 Z M 32.992188 93.90625 " clip-rule="nonzero"/></clipPath><clipPath id="id3"><path d="M 33.003906 93.917969 L 137.378906 205.980469 L 100.175781 240.628906 L -4.199219 128.566406 Z M 33.003906 93.917969 " clip-rule="nonzero"/></clipPath><clipPath id="id4"><path d="M 84.621094 149.339844 C 56.113281 118.730469 24.773438 101.585938 14.617188 111.042969 C 4.464844 120.5 19.34375 152.980469 47.851562 183.585938 C 76.359375 214.195312 107.699219 231.339844 117.851562 221.882812 C 128.007812 212.425781 113.128906 179.945312 84.621094 149.339844 " clip-rule="nonzero"/></clipPath><clipPath id="id5"><path d="M 56 130 L 106 130 L 106 185 L 56 185 Z M 56 130 " clip-rule="nonzero"/></clipPath><clipPath id="id6"><path d="M 72.289062 117.421875 L 120.039062 171.308594 L 97.582031 191.207031 L 49.835938 137.316406 Z M 72.289062 117.421875 " clip-rule="nonzero"/></clipPath><clipPath id="id7"><path d="M 72.289062 117.421875 L 120.039062 171.308594 L 97.582031 191.207031 L 49.835938 137.316406 Z M 72.289062 117.421875 " clip-rule="nonzero"/></clipPath><clipPath id="id8"><path d="M 72.289062 117.421875 L 120.039062 171.308594 L 97.582031 191.207031 L 49.835938 137.316406 Z M 72.289062 117.421875 " clip-rule="nonzero"/></clipPath><clipPath id="id9"><path d="M 29 128 L 108 128 L 108 199 L 29 199 Z M 29 128 " clip-rule="nonzero"/></clipPath><clipPath id="id10"><path d="M 55.664062 110.46875 L 125.320312 163.832031 L 98.867188 198.363281 L 29.210938 145 Z M 55.664062 110.46875 " clip-rule="nonzero"/></clipPath><clipPath id="id11"><path d="M 55.664062 110.46875 L 125.320312 163.832031 L 98.867188 198.363281 L 29.210938 145 Z M 55.664062 110.46875 " clip-rule="nonzero"/></clipPath><clipPath id="id12"><path d="M 55.664062 110.46875 L 125.320312 163.832031 L 98.867188 198.363281 L 29.210938 145 Z M 55.664062 110.46875 " clip-rule="nonzero"/></clipPath></defs><path stroke-linecap="butt" transform="matrix(6.746834, 0.000000000000001151, -0.000000000000001152, 6.75, 323.762333, 134.859541)" fill="none" stroke-linejoin="miter" d="M -0.0000909745 -0.0000245547 L 37.017273 -0.0000245547 " stroke="#f85900" stroke-width="1" stroke-opacity="1" stroke-miterlimit="4"/><path stroke-linecap="butt" transform="matrix(6.75, -0.000000000000000705, 0.000000000000000705, 6.75, 77.09979, 134.859541)" fill="none" stroke-linejoin="miter" d="M 0.000262543 -0.0000245547 L 30.223065 -0.0000245547 " stroke="#f85900" stroke-width="1" stroke-opacity="1" stroke-miterlimit="4"/><g fill="#000000" fill-opacity="1"><g transform="translate(12.346508, 216.436116)"><g><path d="M 6.28125 -42.988281 C 6.28125 -17.613281 26.234375 1.230469 50.871094 1.230469 C 75.503906 1.230469 95.578125 -17.984375 95.578125 -42.988281 C 95.578125 -68.359375 75.503906 -87.574219 50.871094 -87.574219 C 26.234375 -87.574219 6.28125 -68.359375 6.28125 -42.988281 Z M 27.21875 -42.988281 C 27.21875 -59.367188 39.046875 -67.375 50.871094 -67.375 C 62.695312 -67.375 74.394531 -59.246094 74.394531 -42.988281 C 74.394531 -26.851562 62.449219 -18.722656 50.621094 -18.722656 C 38.796875 -18.722656 27.21875 -26.726562 27.21875 -42.988281 Z M 27.21875 -42.988281 "/></g></g></g><g fill="#000000" fill-opacity="1"><g transform="translate(114.200861, 216.436116)"><g><path d="M 68.730469 -28.328125 L 49.515625 -28.328125 C 47.296875 -20.9375 41.261719 -17.488281 35.351562 -17.488281 C 27.960938 -17.488281 20.570312 -22.910156 20.570312 -33.378906 C 20.570312 -43.847656 27.960938 -49.269531 35.351562 -49.269531 C 41.261719 -49.269531 47.296875 -45.695312 49.515625 -38.304688 L 68.730469 -38.304688 C 66.140625 -57.890625 50.746094 -67.496094 35.351562 -67.496094 C 18.476562 -67.496094 1.601562 -55.917969 1.601562 -33.378906 C 1.601562 -10.839844 18.476562 0.738281 35.351562 0.738281 C 50.746094 0.738281 66.140625 -8.867188 68.730469 -28.328125 Z M 68.730469 -28.328125 "/></g></g></g><g fill="#000000" fill-opacity="1"><g transform="translate(189.821872, 216.436116)"><g><path d="M 68.730469 -28.328125 L 49.515625 -28.328125 C 47.296875 -20.9375 41.261719 -17.488281 35.351562 -17.488281 C 27.960938 -17.488281 20.570312 -22.910156 20.570312 -33.378906 C 20.570312 -43.847656 27.960938 -49.269531 35.351562 -49.269531 C 41.261719 -49.269531 47.296875 -45.695312 49.515625 -38.304688 L 68.730469 -38.304688 C 66.140625 -57.890625 50.746094 -67.496094 35.351562 -67.496094 C 18.476562 -67.496094 1.601562 -55.917969 1.601562 -33.378906 C 1.601562 -10.839844 18.476562 0.738281 35.351562 0.738281 C 50.746094 0.738281 66.140625 -8.867188 68.730469 -28.328125 Z M 68.730469 -28.328125 "/></g></g></g><g fill="#000000" fill-opacity="1"><g transform="translate(265.442883, 216.436116)"><g><path d="M 46.1875 -6.773438 L 46.1875 0 L 65.773438 0 L 65.773438 -66.636719 L 45.203125 -66.636719 L 45.203125 -30.421875 C 45.203125 -21.554688 39.167969 -16.628906 33.378906 -16.628906 C 28.082031 -16.628906 22.910156 -20.816406 22.910156 -30.054688 L 22.910156 -66.636719 L 3.324219 -66.636719 L 3.324219 -29.929688 C 3.203125 -13.179688 8.5 0.863281 28.082031 0.863281 C 34.980469 0.863281 41.632812 -0.984375 46.1875 -6.773438 Z M 46.1875 -6.773438 "/></g></g></g><g fill="#000000" fill-opacity="1"><g transform="translate(339.832285, 216.436116)"><g><path d="M 22.664062 -86.21875 L 2.957031 -86.21875 L 2.957031 0 L 22.664062 0 Z M 22.664062 -86.21875 "/></g></g></g><g fill="#000000" fill-opacity="1"><g transform="translate(370.499424, 216.436116)"><g><path d="M 44.339844 0.125 L 43.726562 -15.890625 C 42 -15.519531 40.03125 -15.273438 38.183594 -15.273438 C 33.503906 -15.273438 29.191406 -17.121094 29.191406 -23.03125 L 29.191406 -49.269531 L 43.109375 -49.269531 L 43.109375 -65.894531 L 29.191406 -65.894531 L 29.191406 -80.308594 L 9.855469 -78.582031 L 9.855469 -65.894531 L 1.109375 -65.894531 L 1.109375 -49.269531 L 9.855469 -49.269531 L 9.855469 -23.03125 C 9.855469 -5.789062 18.722656 1.109375 33.378906 1.109375 C 36.703125 1.109375 40.398438 0.738281 44.339844 0.125 Z M 44.339844 0.125 "/></g></g></g><g fill="#000000" fill-opacity="1"><g transform="translate(421.611334, 216.436116)"><g><path d="M 33.996094 -67.742188 C 12.316406 -67.742188 1.722656 -52.46875 1.722656 -34.242188 C 1.722656 -15.890625 12.6875 0.863281 33.75 0.863281 C 40.152344 0.863281 46.679688 -0.984375 51.238281 -6.652344 L 51.238281 0 L 70.578125 0 L 70.578125 -66.636719 L 51.238281 -66.636719 L 51.238281 -59.738281 C 46.929688 -65.28125 40.523438 -67.742188 33.996094 -67.742188 Z M 36.089844 -17.738281 C 26.234375 -17.738281 21.183594 -25.742188 21.183594 -33.75 C 21.183594 -41.878906 26.113281 -49.882812 36.089844 -49.882812 C 44.464844 -49.882812 51.238281 -42.617188 51.238281 -33.75 C 51.238281 -24.878906 44.464844 -17.738281 36.089844 -17.738281 Z M 36.089844 -17.738281 "/></g></g></g><g fill="#000000" fill-opacity="1"><g transform="translate(500.803999, 216.436116)"><g><path d="M 44.339844 0.125 L 43.726562 -15.890625 C 42 -15.519531 40.03125 -15.273438 38.183594 -15.273438 C 33.503906 -15.273438 29.191406 -17.121094 29.191406 -23.03125 L 29.191406 -49.269531 L 43.109375 -49.269531 L 43.109375 -65.894531 L 29.191406 -65.894531 L 29.191406 -80.308594 L 9.855469 -78.582031 L 9.855469 -65.894531 L 1.109375 -65.894531 L 1.109375 -49.269531 L 9.855469 -49.269531 L 9.855469 -23.03125 C 9.855469 -5.789062 18.722656 1.109375 33.378906 1.109375 C 36.703125 1.109375 40.398438 0.738281 44.339844 0.125 Z M 44.339844 0.125 "/></g></g></g><g fill="#000000" fill-opacity="1"><g transform="translate(551.915908, 216.436116)"><g><path d="M 2.710938 -81.292969 C 2.710938 -74.023438 8.621094 -70.453125 14.535156 -70.453125 C 20.199219 -70.453125 25.988281 -74.023438 25.988281 -81.292969 C 25.988281 -88.929688 20.078125 -92.625 14.164062 -92.625 C 8.5 -92.625 2.710938 -88.804688 2.710938 -81.292969 Z M 4.558594 -66.636719 L 24.265625 -66.636719 L 24.265625 0 L 4.558594 0 Z M 4.558594 -66.636719 "/></g></g></g><g fill="#000000" fill-opacity="1"><g transform="translate(584.923132, 216.436116)"><g><path d="M 71.5625 -33.257812 C 71.5625 -57.027344 53.824219 -68.851562 36.089844 -68.851562 C 18.230469 -68.851562 0.492188 -57.027344 0.492188 -33.257812 C 0.492188 -9.605469 18.351562 2.21875 36.089844 2.21875 C 53.824219 2.21875 71.5625 -9.605469 71.5625 -33.257812 Z M 19.953125 -33.257812 C 19.953125 -44.585938 27.960938 -50.253906 36.089844 -50.253906 C 44.957031 -50.253906 52.101562 -44.585938 52.101562 -33.257812 C 52.101562 -22.046875 44.09375 -16.503906 36.089844 -16.503906 C 27.960938 -16.503906 19.953125 -22.046875 19.953125 -33.257812 Z M 19.953125 -33.257812 "/></g></g></g><g fill="#000000" fill-opacity="1"><g transform="translate(662.884153, 216.436116)"><g><path d="M 22.417969 -59.984375 L 22.417969 -66.636719 L 2.832031 -66.636719 L 2.832031 0 L 23.402344 0 L 23.402344 -36.210938 C 23.402344 -44.710938 30.300781 -49.636719 36.089844 -49.636719 C 41.386719 -49.636719 46.433594 -45.574219 46.433594 -36.582031 L 46.433594 0 L 66.140625 0 L 66.140625 -36.703125 C 66.265625 -53.332031 61.09375 -67.375 42.125 -67.621094 C 34.980469 -67.621094 27.097656 -65.894531 22.417969 -59.984375 Z M 22.417969 -59.984375 "/></g></g></g><path stroke-linecap="butt" transform="matrix(-0.000000000000005601, 6.772676, -6.75, -0.000000000000005582, 323.761423, 131.485479)" fill="none" stroke-linejoin="miter" d="M -0.000163062 -0.0000438238 L 10.852845 -0.0000438238 " stroke="#f85900" stroke-width="1" stroke-opacity="1" stroke-miterlimit="4"/><path stroke-linecap="butt" transform="matrix(-6.764413, -0.000000000000000828, 0.000000000000000827, -6.75, 327.125731, 204.740259)" fill="none" stroke-linejoin="miter" d="M 0.000108024 -0.000285651 L 7.319549 -0.000285651 " stroke="#f85900" stroke-width="1" stroke-opacity="1" stroke-miterlimit="4"/><path stroke-linecap="butt" transform="matrix(-0.000000000000005601, 6.772676, -6.75, -0.000000000000005582, 277.730324, 134.860479)" fill="none" stroke-linejoin="miter" d="M -0.000163029 -0.0000215093 L 10.852845 -0.0000215093 " stroke="#f85900" stroke-width="1" stroke-opacity="1" stroke-miterlimit="4"/><g clip-path="url(#id1)"><g clip-path="url(#id2)"><g clip-path="url(#id3)"><g clip-path="url(#id4)"><path stroke-linecap="butt" transform="matrix(0.510658, 0.548269, -0.546019, 0.508562, 33.003226, 93.919331)" fill="none" stroke-linejoin="miter" d="M 101.081958 0.000823809 C 45.254451 -0.000924418 0.00134295 15.073612 -0.00110724 33.671873 C -0.00000405265 52.266304 45.257212 67.342814 101.080904 67.340994 C 156.908411 67.342743 202.16152 52.268206 202.160417 33.673776 C 202.162867 15.075514 156.90565 -0.00099598 101.081958 0.000823809 " stroke="#f85900" stroke-width="18" stroke-opacity="1" stroke-miterlimit="4"/></g></g></g></g><g clip-path="url(#id5)"><g clip-path="url(#id6)"><g clip-path="url(#id7)"><g clip-path="url(#id8)"><path fill="#000000" d="M 90.65625 183.316406 C 90.722656 182.140625 90.734375 180.960938 90.683594 179.78125 C 90.636719 178.605469 90.53125 177.429688 90.371094 176.261719 C 90.207031 175.09375 89.988281 173.933594 89.710938 172.789062 C 89.4375 171.640625 89.105469 170.507812 88.71875 169.394531 C 88.332031 168.277344 87.890625 167.183594 87.398438 166.113281 C 86.902344 165.042969 86.359375 163.996094 85.761719 162.976562 C 85.164062 161.957031 84.519531 160.972656 83.828125 160.015625 C 83.136719 159.058594 82.398438 158.140625 81.613281 157.257812 C 80.832031 156.371094 80.007812 155.527344 79.140625 154.726562 C 78.277344 153.921875 77.375 153.164062 76.433594 152.449219 C 75.496094 151.734375 74.523438 151.066406 73.519531 150.449219 C 72.511719 149.828125 71.480469 149.261719 70.421875 148.742188 C 69.359375 148.222656 68.277344 147.757812 67.171875 147.347656 C 66.066406 146.933594 64.941406 146.578125 63.800781 146.277344 C 62.660156 145.972656 61.507812 145.726562 60.34375 145.539062 C 59.179688 145.351562 58.007812 145.21875 56.832031 145.144531 L 57.753906 130.636719 C 59.402344 130.742188 61.046875 130.929688 62.679688 131.195312 C 64.3125 131.460938 65.925781 131.804688 67.527344 132.230469 C 69.125 132.65625 70.699219 133.15625 72.25 133.734375 C 73.800781 134.3125 75.320312 134.964844 76.804688 135.691406 C 78.292969 136.421875 79.742188 137.21875 81.148438 138.085938 C 82.558594 138.957031 83.921875 139.890625 85.238281 140.894531 C 86.554688 141.894531 87.820312 142.960938 89.035156 144.085938 C 90.25 145.210938 91.402344 146.394531 92.5 147.632812 C 93.601562 148.871094 94.632812 150.164062 95.605469 151.503906 C 96.578125 152.84375 97.480469 154.226562 98.316406 155.65625 C 99.15625 157.085938 99.917969 158.550781 100.613281 160.054688 C 101.304688 161.558594 101.921875 163.089844 102.464844 164.652344 C 103.007812 166.21875 103.472656 167.804688 103.863281 169.410156 C 104.25 171.019531 104.558594 172.644531 104.785156 174.28125 C 105.015625 175.921875 105.164062 177.566406 105.230469 179.21875 C 105.296875 180.871094 105.285156 182.523438 105.191406 184.175781 Z M 90.65625 183.316406 " fill-opacity="1" fill-rule="nonzero"/></g></g></g></g><g clip-path="url(#id9)"><g clip-path="url(#id10)"><g clip-path="url(#id11)"><g clip-path="url(#id12)"><path fill="#000000" d="M 98.863281 198.359375 L 88.855469 190.695312 C 99.25 177.125 96.578125 157.558594 82.890625 147.074219 C 69.203125 136.589844 49.617188 139.097656 39.222656 152.667969 L 29.214844 145.003906 C 43.800781 125.960938 71.292969 122.441406 90.492188 137.152344 C 109.695312 151.859375 113.449219 179.320312 98.863281 198.359375 Z M 98.863281 198.359375 " fill-opacity="1" fill-rule="nonzero"/></g></g></g></g><g fill="#000000" fill-opacity="1"><g transform="translate(234.382654, 268.144765)"><g><path d="M 17.839844 -34.5 L 25.15625 -34.5 L 25.15625 -39.734375 L 4.839844 -39.734375 L 4.839844 -34.5 L 12.15625 -34.5 L 12.15625 -5.289062 L 4.839844 -5.289062 L 4.839844 0 L 25.15625 0 L 25.15625 -5.289062 L 17.839844 -5.289062 Z M 17.839844 -34.5 "/></g></g></g><g fill="#000000" fill-opacity="1"><g transform="translate(264.323065, 268.144765)"><g><path d="M 9.738281 -26.679688 L 9.738281 -30.449219 L 4.222656 -30.449219 L 4.222656 0 L 9.738281 0 L 9.738281 -16.546875 C 9.738281 -21.835938 12.886719 -26.003906 18.6875 -26.003906 C 25.328125 -26.003906 26.847656 -22.0625 26.847656 -16.320312 L 26.847656 0 L 32.304688 0 L 32.304688 -16.378906 C 32.304688 -25.101562 28.367188 -30.898438 19.078125 -30.898438 C 15.253906 -30.898438 11.988281 -29.941406 9.738281 -26.679688 Z M 9.738281 -26.679688 "/></g></g></g><g fill="#000000" fill-opacity="1"><g transform="translate(300.79184, 268.144765)"><g><path d="M 11.425781 -30.449219 L 11.425781 -37.203125 L 5.910156 -36.132812 L 5.910156 -30.449219 L 1.351562 -30.449219 L 1.351562 -26.058594 L 5.910156 -26.058594 L 5.910156 -8.949219 C 5.910156 -1.855469 9.792969 0.167969 15.757812 0.167969 C 16.546875 0.167969 17.390625 0.113281 18.292969 0.0546875 L 18.292969 -4.558594 C 17.449219 -4.503906 16.660156 -4.445312 15.984375 -4.445312 C 13.226562 -4.445312 11.425781 -5.289062 11.425781 -8.894531 L 11.425781 -26.058594 L 18.121094 -26.058594 L 18.121094 -30.449219 Z M 11.425781 -30.449219 "/></g></g></g><g fill="#000000" fill-opacity="1"><g transform="translate(320.151813, 268.144765)"><g><path d="M 34.105469 -16.546875 C 33.488281 -26.113281 26.058594 -30.898438 18.515625 -30.898438 C 10.46875 -30.898438 2.703125 -25.664062 2.703125 -15.195312 C 2.703125 -4.726562 10.582031 0.5625 18.402344 0.5625 C 24.652344 0.5625 30.898438 -2.757812 33.207031 -9.398438 L 27.523438 -9.398438 C 25.722656 -5.964844 22.230469 -4.332031 18.460938 -4.332031 C 13.902344 -4.332031 8.21875 -7.9375 8.21875 -13.902344 L 33.996094 -13.902344 C 34.105469 -14.410156 34.164062 -14.972656 34.164062 -15.589844 C 34.164062 -15.929688 34.164062 -16.210938 34.105469 -16.546875 Z M 28.308594 -18.460938 L 8.441406 -18.460938 C 9.566406 -23.863281 14.070312 -26.058594 18.515625 -26.058594 C 22.90625 -26.058594 27.242188 -23.921875 28.308594 -18.460938 Z M 28.308594 -18.460938 "/></g></g></g><g fill="#000000" fill-opacity="1"><g transform="translate(357.295929, 268.144765)"><g><path d="M 9.679688 -26.679688 L 9.679688 -30.390625 L 4.222656 -30.390625 L 4.222656 0 L 9.679688 0 L 9.679688 -16.492188 C 9.679688 -22.0625 13.957031 -26.171875 19.078125 -26.171875 C 19.980469 -26.171875 20.9375 -26.058594 21.894531 -25.777344 L 21.894531 -30.617188 C 20.65625 -30.898438 19.472656 -31.066406 18.292969 -31.066406 C 14.914062 -31.066406 11.875 -29.71875 9.679688 -26.679688 Z M 9.679688 -26.679688 "/></g></g></g><g fill="#000000" fill-opacity="1"><g transform="translate(380.933096, 268.144765)"><g><path d="M 6.472656 0 L 11.988281 0 L 11.988281 -25.890625 L 18.179688 -25.890625 L 18.179688 -30.671875 L 11.988281 -30.671875 C 11.988281 -34.445312 13.957031 -35.402344 16.882812 -35.402344 C 17.503906 -35.402344 18.179688 -35.34375 18.855469 -35.289062 L 18.855469 -39.902344 C 18.066406 -39.960938 17.335938 -40.015625 16.660156 -40.015625 C 10.019531 -40.015625 6.472656 -37.316406 6.472656 -30.671875 L 1.800781 -30.671875 L 1.800781 -25.890625 L 6.472656 -25.890625 Z M 6.472656 0 "/></g></g></g><g fill="#000000" fill-opacity="1"><g transform="translate(400.687014, 268.144765)"><g><path d="M 35.851562 0 L 35.851562 -30.449219 L 30.335938 -30.449219 L 30.390625 -26.394531 C 27.691406 -30.054688 23.132812 -30.957031 19.359375 -30.957031 C 9.0625 -30.957031 3.09375 -23.582031 3.09375 -15.363281 C 3.09375 -6.980469 8.835938 0.507812 19.472656 0.507812 C 23.246094 0.449219 28.140625 -0.789062 30.335938 -4.109375 L 30.335938 0 Z M 30.335938 -15.253906 C 30.335938 -7.9375 24.425781 -4.390625 19.359375 -4.390625 C 12.605469 -4.390625 8.609375 -9.625 8.609375 -15.363281 C 8.609375 -21.386719 12.664062 -26.113281 19.359375 -26.113281 C 24.539062 -26.113281 30.335938 -22.511719 30.335938 -15.253906 Z M 30.335938 -15.253906 "/></g></g></g><g fill="#000000" fill-opacity="1"><g transform="translate(440.194849, 268.144765)"><g><path d="M 34.050781 -11.59375 L 28.367188 -11.59375 C 27.015625 -6.753906 22.964844 -4.390625 18.796875 -4.390625 C 13.5625 -4.390625 8.386719 -7.9375 8.386719 -15.253906 C 8.386719 -22.511719 13.621094 -26.058594 18.742188 -26.058594 C 22.90625 -26.058594 27.015625 -23.695312 28.367188 -18.855469 L 34.050781 -18.855469 C 32.53125 -26.960938 25.609375 -30.957031 18.6875 -30.957031 C 10.75 -30.957031 2.871094 -25.777344 2.871094 -15.253906 C 2.871094 -4.785156 10.695312 0.449219 18.574219 0.449219 C 25.496094 0.449219 32.53125 -3.433594 34.050781 -11.59375 Z M 34.050781 -11.59375 "/></g></g></g><g fill="#000000" fill-opacity="1"><g transform="translate(477.057569, 268.144765)"><g><path d="M 34.105469 -16.546875 C 33.488281 -26.113281 26.058594 -30.898438 18.515625 -30.898438 C 10.46875 -30.898438 2.703125 -25.664062 2.703125 -15.195312 C 2.703125 -4.726562 10.582031 0.5625 18.402344 0.5625 C 24.652344 0.5625 30.898438 -2.757812 33.207031 -9.398438 L 27.523438 -9.398438 C 25.722656 -5.964844 22.230469 -4.332031 18.460938 -4.332031 C 13.902344 -4.332031 8.21875 -7.9375 8.21875 -13.902344 L 33.996094 -13.902344 C 34.105469 -14.410156 34.164062 -14.972656 34.164062 -15.589844 C 34.164062 -15.929688 34.164062 -16.210938 34.105469 -16.546875 Z M 28.308594 -18.460938 L 8.441406 -18.460938 C 9.566406 -23.863281 14.070312 -26.058594 18.515625 -26.058594 C 22.90625 -26.058594 27.242188 -23.921875 28.308594 -18.460938 Z M 28.308594 -18.460938 "/></g></g></g></svg>